HIERARCHY
ROOT Hips
{
	OFFSET 0.00000 0.00000 0.00000
	CHANNELS 6 Xposition Yposition Zposition Zrotation Yrotation Xrotation 
	JOINT LHipJoint
	{
		OFFSET 0 0 0
		CHANNELS 3 Zrotation Yrotation Xrotation
		JOINT LeftUpLeg
		{
			OFFSET 1.84395 -1.68683 0.74144
			CHANNELS 3 Zrotation Yrotation Xrotation
			JOINT LeftLeg
			{
				OFFSET 2.27037 -6.23779 0.00000
				CHANNELS 3 Zrotation Yrotation Xrotation
				JOINT LeftFoot
				{
					OFFSET 2.56918 -7.05877 0.00000
					CHANNELS 3 Zrotation Yrotation Xrotation
					JOINT LeftToeBase
					{
						OFFSET 0.22276 -0.61202 1.71784
						CHANNELS 3 Zrotation Yrotation Xrotation
						End Site
						{
							OFFSET 0.00000 -0.00000 0.91613
						}
					}
				}
			}
		}
	}
	JOINT RHipJoint
	{
		OFFSET 0 0 0
		CHANNELS 3 Zrotation Yrotation Xrotation
		JOINT RightUpLeg
		{
			OFFSET -1.76833 -1.68684 0.74144
			CHANNELS 3 Zrotation Yrotation Xrotation
			JOINT RightLeg
			{
				OFFSET -2.49360 -6.85110 0.00000
				CHANNELS 3 Zrotation Yrotation Xrotation
				JOINT RightFoot
				{
					OFFSET -2.55538 -7.02085 0.00000
					CHANNELS 3 Zrotation Yrotation Xrotation
					JOINT RightToeBase
					{
						OFFSET -0.21516 -0.59115 1.68050
						CHANNELS 3 Zrotation Yrotation Xrotation
						End Site
						{
							OFFSET -0.00000 -0.00000 0.89604
						}
					}
				}
			}
		}
	}
	JOINT LowerBack
	{
		OFFSET 0 0 0
		CHANNELS 3 Zrotation Yrotation Xrotation
		JOINT Spine
		{
			OFFSET 0.06382 1.72312 -0.19613
			CHANNELS 3 Zrotation Yrotation Xrotation
			JOINT Spine1
			{
				OFFSET -0.00055 1.73507 0.23859
				CHANNELS 3 Zrotation Yrotation Xrotation
				JOINT Neck
				{
					OFFSET 0 0 0
					CHANNELS 3 Zrotation Yrotation Xrotation
					JOINT Neck1
					{
						OFFSET 0.03638 1.65562 0.09633
						CHANNELS 3 Zrotation Yrotation Xrotation
						JOINT Head
						{
							OFFSET 0.06388 1.62807 -0.32386
							CHANNELS 3 Zrotation Yrotation Xrotation
							End Site
							{
								OFFSET 0.00995 1.67644 -0.12021
							}
						}
					}
				}
				JOINT LeftShoulder
				{
					OFFSET 0 0 0
					CHANNELS 3 Zrotation Yrotation Xrotation
					JOINT LeftArm
					{
						OFFSET 3.09648 1.42991 0.28122
						CHANNELS 3 Zrotation Yrotation Xrotation
						JOINT LeftForeArm
						{
							OFFSET 5.11878 -0.00000 -0.00000
							CHANNELS 3 Zrotation Yrotation Xrotation
							JOINT LeftHand
							{
								OFFSET 3.59971 -0.00000 0.00000
								CHANNELS 3 Zrotation Yrotation Xrotation
								JOINT LeftFingerBase
								{
									OFFSET 0 0 0
									CHANNELS 3 Zrotation Yrotation Xrotation
									JOINT LeftHandIndex1
									{
										OFFSET 0.62877 -0.00000 0.00000
										CHANNELS 3 Zrotation Yrotation Xrotation
										End Site
										{
											OFFSET 0.50693 -0.00000 0.00000
										}
									}
								}
								JOINT LThumb
								{
									OFFSET 0 0 0
									CHANNELS 3 Zrotation Yrotation Xrotation
									End Site
									{
										OFFSET 0.51467 -0.00000 0.51467
									}
								}
							}
						}
					}
				}
				JOINT RightShoulder
				{
					OFFSET 0 0 0
					CHANNELS 3 Zrotation Yrotation Xrotation
					JOINT RightArm
					{
						OFFSET -3.33565 1.14597 0.05047
						CHANNELS 3 Zrotation Yrotation Xrotation
						JOINT RightForeArm
						{
							OFFSET -5.49020 -0.00000 0.00000
							CHANNELS 3 Zrotation Yrotation Xrotation
							JOINT RightHand
							{
								OFFSET -3.20659 -0.00000 -0.00000
								CHANNELS 3 Zrotation Yrotation Xrotation
								JOINT RightFingerBase
								{
									OFFSET 0 0 0
									CHANNELS 3 Zrotation Yrotation Xrotation
									JOINT RightHandIndex1
									{
										OFFSET -0.69188 -0.00000 0.00000
										CHANNELS 3 Zrotation Yrotation Xrotation
										End Site
										{
											OFFSET -0.55781 -0.00000 0.00000
										}
									}
								}
								JOINT RThumb
								{
									OFFSET 0 0 0
									CHANNELS 3 Zrotation Yrotation Xrotation
									End Site
									{
										OFFSET -0.56633 -0.00000 0.56633
									}
								}
							}
						}
					}
				}
			}
		}
	}
}
MOTION
Frames: 15
Frame Time: .0083333
0.7936 17.4660 9.7850 -8.4503 -2.8731 9.5394 0.0000 0.0000 0.0000 -24.0960 -40.5784 29.1265 0.0887 -1.9208 -5.2868 -3.2037 42.8363 -50.2364 1.0895 6.6336 18.6342 0.0000 0.0000 0.0000 27.7646 25.7889 8.6598 -0.0103 -0.6538 1.7967 0.8894 -21.2220 -22.3367 -0.0701 -1.7079 4.6991 9.1773 3.3048 -6.4183 -0.8416 4.1024 -7.8444 -5.8746 1.5869 -3.9660 -5.2981 -5.8520 -5.4586 13.7079 -10.9216 24.6846 4.5609 -4.3012 9.7382 -0.0000 0.0000 0.0000 -88.7766 4.0995 -43.6001 14.1873 -23.0018 -2.9009 -0.0000 -0.0000 10.1605 40.5801 -21.6481 -17.5349 -7.1250 0.0000 -0.0000 7.2495 2.5804 -6.9726 -0.0000 0.0000 0.0000 77.4057 40.3549 63.2643 -155.1549 36.0453 -111.8014 0.0000 -0.0000 -25.3626 9.6614 -68.5217 -9.0018 7.1250 -0.0000 -0.0000 97.5126 69.7970 119.3700
0.7952 17.4667 9.7781 -8.4288 -2.9375 9.5529 0.0000 0.0000 0.0000 -24.0573 -40.5292 29.0073 0.0873 -1.9053 -5.2439 -3.1349 42.7271 -50.2500 1.1033 6.6742 18.7536 0.0000 0.0000 0.0000 27.6912 25.8079 8.6014 -0.0102 -0.6511 1.7891 0.8769 -21.1439 -22.3160 -0.0799 -1.8233 5.0177 8.8807 3.1736 -6.9811 -0.5801 3.8587 -7.3337 -5.3974 1.5398 -3.1735 -5.2448 -5.8011 -6.0524 13.3596 -10.7761 24.8159 4.4292 -4.2311 9.8594 -0.0000 0.0000 0.0000 -89.1280 3.3039 -44.5100 14.1562 -22.9576 -2.8887 -0.0000 -0.0000 10.6682 40.5588 -21.6070 -17.4928 -7.1250 0.0000 -0.0000 7.2455 2.6364 -6.9612 -0.0000 0.0000 0.0000 77.2843 41.1364 63.4349 -155.0323 36.1710 -111.7292 0.0000 -0.0000 -25.5107 10.0247 -68.4525 -9.3369 7.1250 -0.0000 -0.0000 97.1857 69.7221 119.1352
0.7954 17.4679 9.7708 -8.3980 -3.0100 9.5900 0.0000 0.0000 0.0000 -24.0018 -40.5054 28.8707 0.0863 -1.8952 -5.2162 -3.1269 42.6917 -50.2113 1.0997 6.6636 18.7226 0.0000 0.0000 0.0000 27.6040 25.8617 8.5108 -0.0105 -0.6624 1.8204 0.8579 -21.0487 -22.3321 -0.0881 -1.9148 5.2702 8.7438 3.1150 -7.1289 -0.4856 3.7641 -7.1645 -5.2142 1.5165 -2.9369 -5.2022 -5.8510 -6.8270 12.9541 -10.8705 25.7472 4.2664 -4.2436 10.3350 0.0000 -0.0000 0.0000 -89.1676 3.0447 -45.2234 14.1060 -22.8860 -2.8692 -0.0000 -0.0000 10.7255 40.2151 -22.4763 -17.9130 -7.1250 0.0000 -0.0000 6.8564 1.7089 -6.6974 0.0000 -0.0000 0.0000 77.2374 41.3847 63.4848 -154.9509 36.2542 -111.6811 0.0000 -0.0000 -25.5273 10.1410 -68.5170 -9.4496 7.1250 -0.0000 -0.0000 97.3327 69.6952 119.3171
0.7966 17.4692 9.7646 -8.3727 -3.0829 9.6288 0.0000 0.0000 0.0000 -23.9774 -40.5039 28.7653 0.0855 -1.8860 -5.1908 -3.1177 42.6875 -50.2320 1.1038 6.6757 18.7580 0.0000 0.0000 0.0000 27.5124 25.8551 8.3913 -0.0110 -0.6765 1.8591 0.8474 -20.9558 -22.2606 -0.0857 -1.8878 5.1957 8.7369 3.1023 -7.0989 -0.4723 3.7493 -7.1371 -5.1980 1.5109 -2.9276 -4.9022 -6.0007 -7.4989 12.3663 -11.1063 26.7047 3.9745 -4.3202 10.7980 -0.0000 0.0000 0.0000 -89.0056 2.9478 -46.4006 13.9985 -22.7326 -2.8275 -0.0000 -0.0000 10.3183 39.0875 -25.3601 -19.1838 -7.1250 0.0000 -0.0000 5.5693 -1.2993 -5.7210 -0.0000 0.0000 0.0000 77.1694 41.4439 63.4216 -154.8423 36.3647 -111.6168 0.0000 -0.0000 -25.5434 9.9557 -68.4646 -9.2732 7.1250 -0.0000 -0.0000 97.2435 69.7365 119.1754
0.7974 17.4700 9.7600 -8.4080 -3.1617 9.6405 0.0000 0.0000 0.0000 -23.9565 -40.5058 28.7728 0.0858 -1.8894 -5.2002 -3.0795 42.7041 -50.3768 1.1193 6.7207 18.8904 0.0000 0.0000 0.0000 27.5067 25.8085 8.3131 -0.0111 -0.6810 1.8714 0.8390 -20.8542 -22.1479 -0.0850 -1.8800 5.1743 8.8036 3.0967 -7.0495 -0.4491 3.7433 -7.1132 -5.2132 1.5062 -2.9292 -4.0746 -5.9766 -7.8199 11.2021 -10.9461 27.1562 3.4249 -4.2580 10.8900 -0.0000 -0.0000 0.0000 -89.0562 2.9835 -45.8011 13.9886 -22.7184 -2.8237 -0.0000 -0.0000 11.1751 40.1235 -22.6112 -17.9538 -7.1250 0.0000 -0.0000 6.7732 1.5781 -6.6310 -0.0000 -0.0000 0.0000 77.1001 41.5060 63.3524 -154.7211 36.4877 -111.5448 0.0000 -0.0000 -25.5931 10.0549 -68.4094 -9.3624 7.1250 -0.0000 -0.0000 97.0505 69.7170 119.0054
0.7977 17.4700 9.7559 -8.4510 -3.2174 9.6505 0.0000 0.0000 0.0000 -23.8990 -40.4927 28.7609 0.0861 -1.8929 -5.2097 -2.9862 42.6356 -50.5373 1.1511 6.8124 19.1606 0.0000 0.0000 0.0000 27.5431 25.8312 8.2964 -0.0110 -0.6775 1.8619 0.8379 -20.8252 -22.1021 -0.0874 -1.9068 5.2481 8.8741 3.0829 -6.9847 -0.4220 3.7288 -7.1087 -5.2282 1.4953 -2.9614 -3.6255 -5.9353 -7.9349 10.5718 -10.8192 27.4084 3.1350 -4.2091 10.9288 0.0000 0.0000 0.0000 -89.0359 3.0384 -45.6986 13.9738 -22.6973 -2.8180 -0.0000 -0.0000 11.4954 40.4536 -21.7399 -17.5276 -7.1250 0.0000 -0.0000 7.1545 2.5107 -6.8888 0.0000 0.0000 0.0000 77.0456 41.5482 63.3548 -154.6196 36.5903 -111.4844 0.0000 -0.0000 -25.7181 9.9245 -68.4517 -9.2433 7.1250 -0.0000 -0.0000 97.2173 69.7436 119.1401
0.7985 17.4698 9.7520 -8.5150 -3.2116 9.6725 0.0000 0.0000 0.0000 -23.6786 -40.3963 28.5707 0.0859 -1.8903 -5.2025 -3.0603 42.6130 -50.2741 1.1225 6.7300 18.9178 0.0000 0.0000 0.0000 27.6115 25.8591 8.2716 -0.0110 -0.6784 1.8642 0.8491 -20.8690 -22.0660 -0.0806 -1.8313 5.0398 8.9626 3.0619 -6.9669 -0.3858 3.6985 -7.0839 -5.2419 1.4786 -2.9482 -3.4824 -5.8837 -7.7990 10.4365 -10.7140 27.2782 3.0765 -4.1711 10.8253 0.0000 0.0000 0.0000 -88.9982 3.0492 -45.7575 13.9795 -22.7054 -2.8202 -0.0000 -0.0000 11.4927 40.4678 -21.6860 -17.4970 -7.1250 0.0000 -0.0000 7.1744 2.5706 -6.9004 0.0000 0.0000 0.0000 76.8872 41.6799 63.2865 -154.5373 36.6732 -111.4353 0.0000 -0.0000 -25.9038 9.6737 -68.4442 -9.0086 7.1250 -0.0000 -0.0000 97.2839 69.7975 119.1395
0.7985 17.4703 9.7480 -8.5884 -3.2001 9.6927 0.0000 0.0000 0.0000 -23.4552 -40.3181 28.3994 0.0862 -1.8938 -5.2122 -3.2919 42.7640 -49.8361 1.0484 6.5112 18.2750 0.0000 0.0000 0.0000 27.6829 25.8527 8.2126 -0.0114 -0.6882 1.8913 0.8544 -20.8784 -22.0257 -0.0711 -1.7203 4.7333 9.0372 3.0251 -6.9500 -0.3336 3.6479 -7.0605 -5.2320 1.4524 -2.9407 -3.3327 -5.8267 -7.6342 10.3350 -10.6028 27.0744 3.0296 -4.1298 10.6905 0.0000 -0.0000 0.0000 -88.9941 3.0797 -45.6781 14.0096 -22.7484 -2.8318 -0.0000 -0.0000 11.3390 40.5316 -21.5609 -17.4436 -7.1250 0.0000 -0.0000 7.2389 2.7003 -6.9462 0.0000 -0.0000 0.0000 76.7386 41.8623 63.1945 -154.4805 36.7303 -111.4013 0.0000 -0.0000 -26.0201 9.8397 -68.4353 -9.1631 7.1250 -0.0000 -0.0000 97.2010 69.7622 119.1003
0.7979 17.4709 9.7434 -8.5788 -3.2288 9.7056 0.0000 0.0000 0.0000 -23.4673 -40.3632 28.3976 0.0861 -1.8921 -5.2075 -3.2686 42.7714 -49.9213 1.0593 6.5439 18.3710 0.0000 0.0000 0.0000 27.6558 25.8718 8.1641 -0.0116 -0.6954 1.9111 0.8547 -20.8653 -21.9957 -0.0674 -1.6754 4.6094 9.0101 2.9786 -6.8978 -0.2994 3.5933 -7.0594 -5.1870 1.4250 -2.9801 -3.3235 -5.7820 -7.5474 10.3329 -10.5299 26.9996 3.0379 -4.1019 10.6379 -0.0000 0.0000 0.0000 -89.0029 3.1348 -45.5886 14.0474 -22.8024 -2.8464 -0.0000 -0.0000 11.1625 40.6247 -21.4891 -17.4454 -7.1250 0.0000 -0.0000 7.3097 2.7570 -7.0077 -0.0000 0.0000 0.0000 76.6927 41.9904 63.2148 -154.4369 36.7740 -111.3752 0.0000 -0.0000 -25.9475 9.9127 -68.4820 -9.2342 7.1250 -0.0000 -0.0000 97.3094 69.7451 119.2309
0.7977 17.4708 9.7397 -8.5019 -3.2582 9.7084 0.0000 0.0000 0.0000 -23.6012 -40.4274 28.4354 0.0849 -1.8799 -5.1739 -3.0901 42.6383 -50.2286 1.1139 6.7049 18.8440 0.0000 0.0000 0.0000 27.5434 25.8574 8.1346 -0.0114 -0.6887 1.8926 0.8655 -20.8778 -21.8999 -0.0640 -1.6326 4.4914 8.9309 2.9619 -6.8560 -0.3121 3.5782 -7.0538 -5.1591 1.4196 -3.0019 -3.4093 -5.7775 -7.4871 10.4265 -10.5285 26.9506 3.0876 -4.1040 10.6180 0.0000 0.0000 0.0000 -88.9304 3.0975 -45.9038 14.0557 -22.8143 -2.8497 -0.0000 -0.0000 10.9828 40.3684 -22.4957 -18.0180 -7.1250 0.0000 -0.0000 6.9434 1.6364 -6.7928 0.0000 0.0000 0.0000 76.5697 42.0977 63.1836 -154.3823 36.8287 -111.3425 0.0000 -0.0000 -25.7522 9.8113 -68.4239 -9.1358 7.1250 -0.0000 -0.0000 97.1768 69.7687 119.0677
0.7976 17.4713 9.7378 -8.4847 -3.2714 9.7143 0.0000 0.0000 0.0000 -23.6514 -40.4757 28.4657 0.0846 -1.8756 -5.1619 -3.0752 42.6625 -50.3165 1.1260 6.7402 18.9479 0.0000 0.0000 0.0000 27.5022 25.8342 8.1114 -0.0111 -0.6808 1.8709 0.8658 -20.8596 -21.8587 -0.0655 -1.6508 4.5414 8.9175 2.9700 -6.8458 -0.3174 3.5896 -7.0355 -5.1563 1.4271 -2.9864 -3.4817 -5.7842 -7.4549 10.5190 -10.5428 26.8845 3.1315 -4.1115 10.5979 0.0000 -0.0000 0.0000 -88.7729 2.9638 -46.8711 14.0345 -22.7840 -2.8415 -0.0000 -0.0000 10.3941 39.1221 -25.5809 -19.3502 -7.1250 0.0000 -0.0000 5.5405 -1.5656 -5.7164 0.0000 -0.0000 0.0000 76.3566 42.1962 63.0847 -154.3542 36.8568 -111.3257 0.0000 -0.0000 -25.6172 9.6454 -68.2947 -8.9731 7.1250 -0.0000 -0.0000 96.8615 69.8084 118.6998
0.7972 17.4718 9.7364 -8.5095 -3.2736 9.7264 0.0000 0.0000 0.0000 -23.6231 -40.5074 28.4726 0.0848 -1.8787 -5.1706 -3.1004 42.7067 -50.3183 1.1290 6.7488 18.9732 0.0000 0.0000 0.0000 27.5232 25.8560 8.1049 -0.0109 -0.6748 1.8545 0.8518 -20.8186 -21.9335 -0.0736 -1.7497 4.8143 8.9519 2.9829 -6.8433 -0.3135 3.6051 -7.0229 -5.1702 1.4346 -2.9709 -3.4903 -5.7821 -7.4802 10.5479 -10.5448 26.8758 3.1423 -4.1093 10.6022 0.0000 -0.0000 0.0000 -88.7506 2.9579 -46.5883 14.0897 -22.8627 -2.8628 -0.0000 -0.0000 10.1576 38.9698 -25.4880 -19.1926 -7.1250 0.0000 -0.0000 5.4727 -1.4077 -5.6310 0.0000 -0.0000 0.0000 76.1507 42.2276 62.9713 -154.3690 36.8420 -111.3346 0.0000 -0.0000 -25.6136 9.2941 -68.2713 -8.6441 7.1250 -0.0000 -0.0000 96.9195 69.8851 118.6624
0.7965 17.4717 9.7347 -8.4796 -3.2615 9.7256 0.0000 0.0000 0.0000 -23.5980 -40.4661 28.3953 0.0847 -1.8768 -5.1653 -3.1781 42.7394 -50.1406 1.1116 6.6982 18.8243 0.0000 0.0000 0.0000 27.4881 25.8622 8.1125 -0.0106 -0.6645 1.8262 0.8495 -20.8208 -21.9635 -0.0774 -1.7947 4.9385 8.9248 2.9711 -6.8209 -0.3216 3.5930 -7.0265 -5.1656 1.4285 -2.9897 -3.4260 -5.7693 -7.4325 10.5049 -10.5175 26.8148 3.1194 -4.0990 10.5612 -0.0000 0.0000 0.0000 -88.7175 2.9957 -46.2946 14.1306 -22.9211 -2.8788 -0.0000 -0.0000 9.8179 39.1036 -25.5770 -19.3359 -7.1250 0.0000 -0.0000 5.5306 -1.5548 -5.7051 -0.0000 0.0000 0.0000 76.0378 42.2302 62.9015 -154.3698 36.8412 -111.3350 0.0000 -0.0000 -25.6828 8.9675 -68.3216 -8.3425 7.1250 -0.0000 -0.0000 97.1807 69.9538 118.8398
0.7957 17.4718 9.7329 -8.4472 -3.2502 9.7243 0.0000 0.0000 0.0000 -23.5786 -40.4257 28.3125 0.0841 -1.8710 -5.1492 -3.2812 42.8059 -49.9449 1.0823 6.6123 18.5719 0.0000 0.0000 0.0000 27.4439 25.8504 8.0959 -0.0106 -0.6637 1.8238 0.8502 -20.8156 -21.9452 -0.0783 -1.8046 4.9660 8.8800 2.9545 -6.7870 -0.3203 3.5769 -7.0382 -5.1423 1.4203 -3.0252 -3.4247 -5.7640 -7.3705 10.4898 -10.4981 26.7553 3.1170 -4.0961 10.5238 -0.0000 -0.0000 0.0000 -88.6994 2.9748 -46.2431 14.1641 -22.9688 -2.8918 -0.0000 -0.0000 9.7866 39.2046 -25.5694 -19.3954 -7.1250 0.0000 -0.0000 5.5908 -1.5799 -5.7701 -0.0000 -0.0000 0.0000 75.9978 42.2413 62.8723 -154.3597 36.8513 -111.3290 0.0000 -0.0000 -25.6954 8.7347 -68.3669 -8.1279 7.1250 -0.0000 -0.0000 97.3987 70.0018 118.9990
0.7952 17.4719 9.7314 -8.4346 -3.2363 9.7267 0.0000 0.0000 0.0000 -23.5553 -40.4121 28.2591 0.0836 -1.8646 -5.1317 -3.2327 42.7311 -49.9589 1.0887 6.6312 18.6272 0.0000 0.0000 0.0000 27.4143 25.8060 8.0509 -0.0107 -0.6694 1.8397 0.8497 -20.7874 -21.8931 -0.0727 -1.7399 4.7875 8.8626 2.9516 -6.7662 -0.3111 3.5767 -7.0489 -5.1243 1.4197 -3.0494 -3.5220 -5.7657 -7.3760 10.5451 -10.5038 26.7940 3.1534 -4.1009 10.5485 0.0000 0.0000 0.0000 -88.7802 2.9870 -45.5968 14.2284 -23.0603 -2.9170 -0.0000 -0.0000 10.2738 39.8776 -23.4942 -18.4210 -7.1250 0.0000 -0.0000 6.4386 0.6147 -6.4099 0.0000 0.0000 0.0000 75.9561 42.2348 62.8005 -154.3534 36.8576 -111.3252 0.0000 -0.0000 -25.6335 8.7866 -68.3304 -8.1743 7.1250 -0.0000 -0.0000 97.2721 69.9925 118.8835
